<svg width="24" height="24" viewBox="0 0 24 24" fill="none" xmlns="http://www.w3.org/2000/svg">
<path fill-rule="evenodd" clip-rule="evenodd" d="M6.5 3C6.10218 3 5.72064 3.15804 5.43934 3.43934C5.15804 3.72064 5 4.10218 5 4.5V16.3377C5.46443 16.1174 5.97616 16 6.5 16H19V3H6.5ZM21 2C21 1.44772 20.5523 1 20 1H6.5C5.57174 1 4.6815 1.36875 4.02513 2.02513C3.36875 2.6815 3 3.57174 3 4.5V19.5C3 20.4283 3.36875 21.3185 4.02513 21.9749C4.6815 22.6313 5.57174 23 6.5 23H20C20.5523 23 21 22.5523 21 22V2ZM19 18H6.5C6.10218 18 5.72064 18.158 5.43934 18.4393C5.15804 18.7206 5 19.1022 5 19.5C5 19.8978 5.15804 20.2794 5.43934 20.5607C5.72064 20.842 6.10218 21 6.5 21H19V18Z" fill="#F6F6F6"/>
<path fill-rule="evenodd" clip-rule="evenodd" d="M7.11408 4.54297C7.25609 4.54297 7.37122 4.6581 7.37122 4.80011V6.85725C7.37122 6.99927 7.25609 7.1144 7.11408 7.1144C6.97206 7.1144 6.85693 6.99927 6.85693 6.85725V4.80011C6.85693 4.6581 6.97206 4.54297 7.11408 4.54297Z" fill="#F6F6F6"/>
<path fill-rule="evenodd" clip-rule="evenodd" d="M7.02863 11.3999C7.17064 11.3999 7.28577 11.515 7.28577 11.657V13.7142C7.28577 13.8562 7.17064 13.9713 7.02863 13.9713C6.88661 13.9713 6.77148 13.8562 6.77148 13.7142V11.657C6.77148 11.515 6.88661 11.3999 7.02863 11.3999Z" fill="#F6F6F6"/>
<path fill-rule="evenodd" clip-rule="evenodd" d="M9.42853 7.80005C9.57055 7.80005 9.68567 7.91518 9.68567 8.05719V10.1143C9.68567 10.2564 9.57055 10.3715 9.42853 10.3715C9.28651 10.3715 9.17139 10.2564 9.17139 10.1143V8.05719C9.17139 7.91518 9.28651 7.80005 9.42853 7.80005Z" fill="#F6F6F6"/>
<path fill-rule="evenodd" clip-rule="evenodd" d="M9.85693 8.74286C9.85693 8.60084 9.97206 8.48571 10.1141 8.48571H12.1712C12.3132 8.48571 12.4284 8.60084 12.4284 8.74286C12.4284 8.88487 12.3132 9 12.1712 9H10.1141C9.97206 9 9.85693 8.88487 9.85693 8.74286Z" fill="#F6F6F6"/>
<path fill-rule="evenodd" clip-rule="evenodd" d="M8.74298 4.54297C8.885 4.54297 9.00013 4.6581 9.00013 4.80011V6.85725C9.00013 6.99927 8.885 7.1144 8.74298 7.1144C8.60097 7.1144 8.48584 6.99927 8.48584 6.85725V4.80011C8.48584 4.6581 8.60097 4.54297 8.74298 4.54297Z" fill="#F6F6F6"/>
<path fill-rule="evenodd" clip-rule="evenodd" d="M8.65705 11.3999C8.79906 11.3999 8.91419 11.515 8.91419 11.657V13.7142C8.91419 13.8562 8.79906 13.9713 8.65705 13.9713C8.51503 13.9713 8.3999 13.8562 8.3999 13.7142V11.657C8.3999 11.515 8.51503 11.3999 8.65705 11.3999Z" fill="#F6F6F6"/>
<path fill-rule="evenodd" clip-rule="evenodd" d="M17.3143 4.54297C17.4563 4.54297 17.5714 4.6581 17.5714 4.80011V6.85725C17.5714 6.99927 17.4563 7.1144 17.3143 7.1144C17.1723 7.1144 17.0571 6.99927 17.0571 6.85725V4.80011C17.0571 4.6581 17.1723 4.54297 17.3143 4.54297Z" fill="#F6F6F6"/>
<path fill-rule="evenodd" clip-rule="evenodd" d="M17.2283 11.3999C17.3704 11.3999 17.4855 11.515 17.4855 11.657V13.7142C17.4855 13.8562 17.3704 13.9713 17.2283 13.9713C17.0863 13.9713 16.9712 13.8562 16.9712 13.7142V11.657C16.9712 11.515 17.0863 11.3999 17.2283 11.3999Z" fill="#F6F6F6"/>
<path fill-rule="evenodd" clip-rule="evenodd" d="M13.7142 7.80005C13.8562 7.80005 13.9713 7.91518 13.9713 8.05719V10.1143C13.9713 10.2564 13.8562 10.3715 13.7142 10.3715C13.5722 10.3715 13.457 10.2564 13.457 10.1143V8.05719C13.457 7.91518 13.5722 7.80005 13.7142 7.80005Z" fill="#F6F6F6"/>
<path fill-rule="evenodd" clip-rule="evenodd" d="M14.743 7.80005C14.885 7.80005 15.0001 7.91518 15.0001 8.05719V10.1143C15.0001 10.2564 14.885 10.3715 14.743 10.3715C14.601 10.3715 14.4858 10.2564 14.4858 10.1143V8.05719C14.4858 7.91518 14.601 7.80005 14.743 7.80005Z" fill="#F6F6F6"/>
<path fill-rule="evenodd" clip-rule="evenodd" d="M11.4861 5.22876C11.6282 5.22876 11.7433 5.34389 11.7433 5.4859V6.85733C11.7433 6.99935 11.6282 7.11447 11.4861 7.11447C11.3441 7.11447 11.229 6.99935 11.229 6.85733V5.4859C11.229 5.34389 11.3441 5.22876 11.4861 5.22876Z" fill="#F6F6F6"/>
<path fill-rule="evenodd" clip-rule="evenodd" d="M12.6859 5.22876C12.8279 5.22876 12.943 5.34389 12.943 5.4859V6.85733C12.943 6.99935 12.8279 7.11447 12.6859 7.11447C12.5438 7.11447 12.4287 6.99935 12.4287 6.85733V5.4859C12.4287 5.34389 12.5438 5.22876 12.6859 5.22876Z" fill="#F6F6F6"/>
<path fill-rule="evenodd" clip-rule="evenodd" d="M10.286 4.54297C10.428 4.54297 10.5431 4.6581 10.5431 4.80011V6.85725C10.5431 6.99927 10.428 7.1144 10.286 7.1144C10.1439 7.1144 10.0288 6.99927 10.0288 6.85725V4.80011C10.0288 4.6581 10.1439 4.54297 10.286 4.54297Z" fill="#F6F6F6"/>
<path fill-rule="evenodd" clip-rule="evenodd" d="M12.7716 6.00249C12.7703 6.1445 12.6541 6.25858 12.5121 6.25729L10.4551 6.23862C10.3131 6.23733 10.199 6.12116 10.2003 5.97915C10.2016 5.83714 10.3177 5.72306 10.4597 5.72435L12.5168 5.74303C12.6588 5.74432 12.7729 5.86048 12.7716 6.00249Z" fill="#F6F6F6"/>
<path fill-rule="evenodd" clip-rule="evenodd" d="M11.3997 12.0857C11.5417 12.0857 11.6569 12.2008 11.6569 12.3428V13.7143C11.6569 13.8563 11.5417 13.9714 11.3997 13.9714C11.2577 13.9714 11.1426 13.8563 11.1426 13.7143V12.3428C11.1426 12.2008 11.2577 12.0857 11.3997 12.0857Z" fill="#F6F6F6"/>
<path fill-rule="evenodd" clip-rule="evenodd" d="M12.5999 12.0857C12.7419 12.0857 12.8571 12.2008 12.8571 12.3428V13.7143C12.8571 13.8563 12.7419 13.9714 12.5999 13.9714C12.4579 13.9714 12.3428 13.8563 12.3428 13.7143V12.3428C12.3428 12.2008 12.4579 12.0857 12.5999 12.0857Z" fill="#F6F6F6"/>
<path fill-rule="evenodd" clip-rule="evenodd" d="M7.7998 12.6857C7.7998 12.5437 7.91493 12.4286 8.05695 12.4286H10.1141C10.2561 12.4286 10.3712 12.5437 10.3712 12.6857C10.3712 12.8277 10.2561 12.9429 10.1141 12.9429H8.05695C7.91493 12.9429 7.7998 12.8277 7.7998 12.6857Z" fill="#F6F6F6"/>
<path fill-rule="evenodd" clip-rule="evenodd" d="M18.5997 9.10674C18.5984 9.24875 18.4823 9.36283 18.3402 9.36154L16.2832 9.34286C16.1412 9.34157 16.0271 9.22541 16.0284 9.0834C16.0297 8.94139 16.1459 8.82731 16.2879 8.8286L18.3449 8.84727C18.4869 8.84856 18.601 8.96473 18.5997 9.10674Z" fill="#F6F6F6"/>
<path d="M14.7429 6.3429C14.7429 6.62693 14.5127 6.85718 14.2286 6.85718C13.9446 6.85718 13.7144 6.62693 13.7144 6.3429C13.7144 6.05887 13.9446 5.82861 14.2286 5.82861C14.5127 5.82861 14.7429 6.05887 14.7429 6.3429Z" fill="#F6F6F6"/>
<path d="M14.657 13.2001C14.657 13.4841 14.4267 13.7144 14.1427 13.7144C13.8587 13.7144 13.6284 13.4841 13.6284 13.2001C13.6284 12.916 13.8587 12.6858 14.1427 12.6858C14.4267 12.6858 14.657 12.916 14.657 13.2001Z" fill="#F6F6F6"/>
<path d="M12.5144 9.94275C12.5144 10.2268 12.2842 10.457 12.0001 10.457C11.7161 10.457 11.4858 10.2268 11.4858 9.94275C11.4858 9.65872 11.7161 9.42847 12.0001 9.42847C12.2842 9.42847 12.5144 9.65872 12.5144 9.94275Z" fill="#F6F6F6"/>
<path d="M8.05738 9.59998C8.05738 9.88401 7.82713 10.1143 7.54309 10.1143C7.25906 10.1143 7.02881 9.88401 7.02881 9.59998C7.02881 9.31595 7.25906 9.08569 7.54309 9.08569C7.82713 9.08569 8.05738 9.31595 8.05738 9.59998Z" fill="#F6F6F6"/>
<path d="M16.2859 6.3429C16.2859 6.62693 16.0556 6.85718 15.7716 6.85718C15.4876 6.85718 15.2573 6.62693 15.2573 6.3429C15.2573 6.05887 15.4876 5.82861 15.7716 5.82861C16.0556 5.82861 16.2859 6.05887 16.2859 6.3429Z" fill="#F6F6F6"/>
<path d="M16.2 13.2001C16.2 13.4841 15.9697 13.7144 15.6857 13.7144C15.4016 13.7144 15.1714 13.4841 15.1714 13.2001C15.1714 12.916 15.4016 12.6858 15.6857 12.6858C15.9697 12.6858 16.2 12.916 16.2 13.2001Z" fill="#F6F6F6"/>
</svg>
