<svg width="120" height="16" viewBox="0 0 120 16" fill="none" xmlns="http://www.w3.org/2000/svg">
<path d="M120 16H107.775L105.058 13.3333V0H120V2.66667H107.775V6.66667H115.925V9.33333H107.775V12.4444L108.681 13.3333H120V16Z" fill="url(#paint0_linear_380_1424)"/>
<path d="M90.9943 16H88.3003V0L92.0357 0.0222219L100.48 8.66667L100.525 0H103.242V16H100.525V12.5556L90.9943 2.82222V16Z" fill="url(#paint1_linear_380_1424)"/>
<path d="M86.4843 16H83.7902V0H86.4843V16Z" fill="url(#paint2_linear_380_1424)"/>
<path d="M69.7262 16L67.0322 13.3333V0H69.7262V12.4444L70.6318 13.3333H81.9738V16H69.7262Z" fill="url(#paint3_linear_380_1424)"/>
<path d="M65.2158 0V7.68889L52.9908 11.2444V16H50.2741V0H65.2158ZM62.4538 5.68889L62.4991 2.66667H52.9908V8.44444L62.4538 5.68889Z" fill="#F6F6F6"/>
<path d="M48.4577 16H36.2328L33.5161 13.3333V0H48.4577V2.66667H36.2328V6.66667H44.3827V9.33333H36.2328V12.4444L37.1383 13.3333H48.4577V16Z" fill="#F6F6F6"/>
<path d="M31.6997 16H19.4747L16.758 13.3333V0H31.6997V2.66667H19.4747V6.66667H27.6247V9.33333H19.4747V12.4444L20.3803 13.3333H31.6997V16Z" fill="#F6F6F6"/>
<path d="M12.225 0L14.9416 2.66667V13.3333L12.225 16H0V0H12.225ZM12.225 12.4444V3.55556L11.3194 2.66667H2.71666V13.3333H11.3194L12.225 12.4444Z" fill="#F6F6F6"/>
<defs>
<linearGradient id="paint0_linear_380_1424" x1="-361.676" y1="-4.65972" x2="142.93" y2="226.58" gradientUnits="userSpaceOnUse">
<stop stop-color="#F72F85"/>
<stop offset="0.500544" stop-color="#4361EE"/>
<stop offset="0.883044" stop-color="#3A0CA3"/>
</linearGradient>
<linearGradient id="paint1_linear_380_1424" x1="-227.088" y1="-4.65972" x2="277.518" y2="226.58" gradientUnits="userSpaceOnUse">
<stop stop-color="#F72F85"/>
<stop offset="0.500544" stop-color="#4361EE"/>
<stop offset="0.883044" stop-color="#3A0CA3"/>
</linearGradient>
<linearGradient id="paint2_linear_380_1424" x1="-1058.59" y1="-4.65971" x2="-604.633" y2="1149.11" gradientUnits="userSpaceOnUse">
<stop stop-color="#F72F85"/>
<stop offset="0.500544" stop-color="#4361EE"/>
<stop offset="0.883044" stop-color="#3A0CA3"/>
</linearGradient>
<linearGradient id="paint3_linear_380_1424" x1="-56.2784" y1="-4.65971" x2="448.328" y2="226.58" gradientUnits="userSpaceOnUse">
<stop stop-color="#F72F85"/>
<stop offset="0.500544" stop-color="#4361EE"/>
<stop offset="0.883044" stop-color="#3A0CA3"/>
</linearGradient>
</defs>
</svg>
